<svg xmlns="http://www.w3.org/2000/svg" width="4239" height="1201"><g><line x1="2551" x2="2551" y1="778" y2="778" stroke-dasharray="2,2"></line><line x1="2551" x2="2551" y1="220" y2="778"></line><line x1="594" x2="2551" y1="778" y2="778"></line><line x1="594" x2="2551" y1="778" y2="778"></line><line x1="594" x2="2551" y1="1036" y2="778"></line><path transform="translate(2551,778)" style="fill:white;stroke:black" d="M -10 0 L 0 -10 L 10 0 L 0 10 Z"></path></g><g><line x1="2551" x2="3402" y1="310" y2="471" stroke-dasharray="2,2"></line><line x1="2552" x2="2551" y1="400" y2="220"></line><text x="2557" y="393">1..*</text><text x="2556" y="241">1</text></g><g><line x1="3236" x2="3402" y1="148" y2="168" stroke-dasharray="2,2"></line><line x1="2732" x2="3740" y1="148" y2="148"></line><text x="2737" y="169">1..*</text><text x="3695" y="169">1..*</text></g><g><line x1="1618" x2="1478" y1="148" y2="168" stroke-dasharray="2,2"></line><line x1="865" x2="2371" y1="148" y2="148"></line><text x="870" y="169">1..*</text><text x="2326" y="169">1..*</text></g><defs><style>@import url('https://fonts.googleapis.com/css2?family=Roboto+Mono&amp;display=swap')</style><style>text,text&gt;tspan{font-family:'Roboto Mono';font-size:16px} rect{stroke:black} line,path{fill:none;stroke:black}</style><marker id="arrowMarker" orient="auto" refX="6" refY="5" markerHeight="10" markerWidth="5"><path style="fill:black;stroke:black" d="M 0 0 L 5 5 L 0 10 Z"></path></marker><marker id="inheritMarker" orient="auto" refX="16" refY="7.5" markerHeight="15" markerWidth="15"><path style="fill:white;stroke:black" d="M 0 0 L 15 7.5 L 0 15 Z"></path></marker><marker id="aggregationMarker" orient="auto" refX="21" refY="7.5" markerHeight="15" markerWidth="20"><path style="fill:white;stroke:black" d="M 0 7.5 L 10 0 L 20 7.5 L 10 15 Z"></path></marker><marker id="compositionMarker" orient="auto" refX="21" refY="7.5" markerHeight="15" markerWidth="20"><path style="fill:black;stroke:black" d="M 0 7.5 L 10 0 L 20 7.5 L 10 15 Z"></path></marker></defs><g transform="translate(57,5)"><rect height="287" width="808" style="fill:white"></rect><rect height="21" width="808" style="fill:white"></rect><text x="375.5" y="16">User's</text><text><tspan x="2.5" y="37"># id : String</tspan><tspan x="2.5" y="53"># name : String</tspan><tspan x="2.5" y="69"># firstname : String</tspan><tspan x="2.5" y="85"># email : String</tspan><tspan x="2.5" y="101"># PhoneNumber : String</tspan><tspan x="2.5" y="122">+ User's(id:String, name:String, firstname:String, email:String, PhoneNumber:String)</tspan><tspan x="2.5" y="138">+ getId() : String</tspan><tspan x="2.5" y="154">+ setId(id:String) : String</tspan><tspan x="2.5" y="170">+ getName() : String</tspan><tspan x="2.5" y="186">+ setName(name:String) : String</tspan><tspan x="2.5" y="202">+ getFirstname() : String</tspan><tspan x="2.5" y="218">+ setFirstname(firstname:String) : String</tspan><tspan x="2.5" y="234">+ getEmail() : String</tspan><tspan x="2.5" y="250">+ setEmail(email:String) : String</tspan><tspan x="2.5" y="266">+ getPhoneNumber() : String</tspan><tspan x="2.5" y="282">+ setPhoneNumber(PhoneNumber:String) : String</tspan></text><line x1="0" x2="808" y1="107" y2="107"></line></g><g transform="translate(2371,77)"><rect height="143" width="361.5" style="fill:white"></rect><rect height="21" width="361.5" style="fill:white"></rect><text x="161.75" y="16">Home</text><text><tspan x="2.5" y="37"># id : String</tspan><tspan x="2.5" y="53"># adresse : String</tspan><tspan x="2.5" y="74">+ Home(id:String, adresse:String)</tspan><tspan x="2.5" y="90">+ getId() : String</tspan><tspan x="2.5" y="106">+ setId(id:String) : String</tspan><tspan x="2.5" y="122">+ getAdresse() : String</tspan><tspan x="2.5" y="138">+ setAdresse(adresse:String) : String</tspan></text><line x1="0" x2="361.5" y1="59" y2="59"></line></g><g transform="translate(3740,77)"><rect height="143" width="399.5" style="fill:white"></rect><rect height="21" width="399.5" style="fill:white"></rect><text x="157" y="16">GoogleAPI</text><text><tspan x="2.5" y="37"># id : String</tspan><tspan x="2.5" y="53"># ip_adress : String</tspan><tspan x="2.5" y="74">+ GoogleAPI(id:String, ip_adress:String)</tspan><tspan x="2.5" y="90">+ getId() : String</tspan><tspan x="2.5" y="106">+ setId(id:String) : String</tspan><tspan x="2.5" y="122">+ getIp_adress() : String</tspan><tspan x="2.5" y="138">+ setIp_adress(ip_adress:String) : String</tspan></text><line x1="0" x2="399.5" y1="59" y2="59"></line></g><g transform="translate(5,424)"><rect height="95" width="912.5" style="fill:white"></rect><rect height="21" width="912.5" style="fill:white"></rect><text x="427.75" y="16">Member</text><text><tspan x="2.5" y="37"># id : String</tspan><tspan x="2.5" y="58">+ Member(id:String, name:String, firstname:String, email:String, PhoneNumber:String, id:String)</tspan><tspan x="2.5" y="74">+ getId() : String</tspan><tspan x="2.5" y="90">+ setId(id:String) : String</tspan></text><line x1="0" x2="912.5" y1="43" y2="43"></line></g><g transform="translate(1017,424)"><rect height="95" width="922" style="fill:white"></rect><rect height="21" width="922" style="fill:white"></rect><text x="427.75" y="16">CoOwner</text><text><tspan x="2.5" y="37"># id : String</tspan><tspan x="2.5" y="58">+ CoOwner(id:String, name:String, firstname:String, email:String, PhoneNumber:String, id:String)</tspan><tspan x="2.5" y="74">+ getId() : String</tspan><tspan x="2.5" y="90">+ setId(id:String) : String</tspan></text><line x1="0" x2="922" y1="43" y2="43"></line></g><g transform="translate(2039,400)"><rect height="143" width="1026.5" style="fill:white"></rect><rect height="21" width="1026.5" style="fill:white"></rect><text x="489.5" y="16">Owner</text><text><tspan x="2.5" y="37"># id : String</tspan><tspan x="2.5" y="53"># Card : String</tspan><tspan x="2.5" y="74">+ Owner(id:String, name:String, firstname:String, email:String, PhoneNumber:String, id:String, Card:String)</tspan><tspan x="2.5" y="90">+ getId() : String</tspan><tspan x="2.5" y="106">+ setId(id:String) : String</tspan><tspan x="2.5" y="122">+ getCard() : String</tspan><tspan x="2.5" y="138">+ setCard(Card:String) : String</tspan></text><line x1="0" x2="1026.5" y1="59" y2="59"></line></g><g transform="translate(328,731)"><rect height="95" width="266.5" style="fill:white"></rect><rect height="21" width="266.5" style="fill:white"></rect><text x="114.25" y="16">Room</text><text><tspan x="2.5" y="37"># n° : String</tspan><tspan x="2.5" y="58">+ Room(n°:String)</tspan><tspan x="2.5" y="74">+ getN°() : String</tspan><tspan x="2.5" y="90">+ setN°(n°:String) : String</tspan></text><line x1="0" x2="266.5" y1="43" y2="43"></line></g><g transform="translate(328,1006)"><rect height="95" width="266.5" style="fill:white"></rect><rect height="21" width="266.5" style="fill:white"></rect><text x="100" y="16">Objects</text><text><tspan x="2.5" y="37"># n° : String</tspan><tspan x="2.5" y="58">+ Objects(n°:String)</tspan><tspan x="2.5" y="74">+ getN°() : String</tspan><tspan x="2.5" y="90">+ setN°(n°:String) : String</tspan></text><line x1="0" x2="266.5" y1="43" y2="43"></line></g><g transform="translate(1269,168)"><rect height="159" width="418.5" style="fill:white"></rect><rect height="21" width="418.5" style="fill:white"></rect><text x="180.75" y="16">Create</text><text><tspan x="2.5" y="37">-  : String</tspan><tspan x="2.5" y="53"># user's : User's</tspan><tspan x="2.5" y="69"># home : Home</tspan><tspan x="2.5" y="90">+ Create(:String, user's:User's, home:Home)</tspan><tspan x="2.5" y="106">+ getUser's() : User's</tspan><tspan x="2.5" y="122">+ setUser's(user's:User's) : User's</tspan><tspan x="2.5" y="138">+ getHome() : Home</tspan><tspan x="2.5" y="154">+ setHome(home:Home) : Home</tspan></text><line x1="0" x2="418.5" y1="75" y2="75"></line></g><g transform="translate(3165,168)"><rect height="159" width="475.5" style="fill:white"></rect><rect height="21" width="475.5" style="fill:white"></rect><text x="209.25" y="16">Search</text><text><tspan x="2.5" y="37">-  : String</tspan><tspan x="2.5" y="53"># home : Home</tspan><tspan x="2.5" y="69"># googleAPI : GoogleAPI</tspan><tspan x="2.5" y="90">+ Search(:String, home:Home, googleAPI:GoogleAPI)</tspan><tspan x="2.5" y="106">+ getHome() : Home</tspan><tspan x="2.5" y="122">+ setHome(home:Home) : Home</tspan><tspan x="2.5" y="138">+ getGoogleAPI() : GoogleAPI</tspan><tspan x="2.5" y="154">+ setGoogleAPI(googleAPI:GoogleAPI) : GoogleAPI</tspan></text><line x1="0" x2="475.5" y1="75" y2="75"></line></g><g transform="translate(3193,392)"><rect height="159" width="418.5" style="fill:white"></rect><rect height="21" width="418.5" style="fill:white"></rect><text x="171.25" y="16">Posseder</text><text><tspan x="2.5" y="37">-  : String</tspan><tspan x="2.5" y="53"># owner : Owner</tspan><tspan x="2.5" y="69"># home : Home</tspan><tspan x="2.5" y="90">+ Posseder(:String, owner:Owner, home:Home)</tspan><tspan x="2.5" y="106">+ getOwner() : Owner</tspan><tspan x="2.5" y="122">+ setOwner(owner:Owner) : Owner</tspan><tspan x="2.5" y="138">+ getHome() : Home</tspan><tspan x="2.5" y="154">+ setHome(home:Home) : Home</tspan></text><line x1="0" x2="418.5" y1="75" y2="75"></line></g><g transform="translate(2571,798)"><rect height="255" width="665.5" style="fill:white"></rect><rect height="21" width="665.5" style="fill:white"></rect><text x="294.75" y="16">Contenir</text><text><tspan x="2.5" y="37">-  : String</tspan><tspan x="2.5" y="53"># home : Home</tspan><tspan x="2.5" y="69"># room : Room</tspan><tspan x="2.5" y="85"># room : Room</tspan><tspan x="2.5" y="101"># objects : Objects</tspan><tspan x="2.5" y="122">+ Contenir(:String, home:Home, room:Room, room:Room, objects:Objects)</tspan><tspan x="2.5" y="138">+ getHome() : Home</tspan><tspan x="2.5" y="154">+ setHome(home:Home) : Home</tspan><tspan x="2.5" y="170">+ getRoom() : Room</tspan><tspan x="2.5" y="186">+ setRoom(room:Room) : Room</tspan><tspan x="2.5" y="202">+ getRoom() : Room</tspan><tspan x="2.5" y="218">+ setRoom(room:Room) : Room</tspan><tspan x="2.5" y="234">+ getObjects() : Objects</tspan><tspan x="2.5" y="250">+ setObjects(objects:Objects) : Objects</tspan></text><line x1="0" x2="665.5" y1="107" y2="107"></line></g><line x1="461" x2="461" y1="424" y2="292" marker-end="url(#inheritMarker)"></line><line x1="1330" x2="865" y1="424" y2="276" marker-end="url(#inheritMarker)"></line><line x1="2092" x2="865" y1="400" y2="210" marker-end="url(#inheritMarker)"></line></svg>