<svg xmlns="http://www.w3.org/2000/svg" width="762" height="453"><defs><style>@import url('https://fonts.googleapis.com/css2?family=Roboto+Mono&amp;display=swap')</style><style>text,text&gt;tspan{font-family:'Roboto Mono';font-size:16px} rect{stroke:black} line,path{fill:none;stroke:black}</style><marker id="arrowMarker" orient="auto" refX="6" refY="5" markerHeight="10" markerWidth="5"><path style="fill:black;stroke:black" d="M 0 0 L 5 5 L 0 10 Z"></path></marker><marker id="inheritMarker" orient="auto" refX="16" refY="7.5" markerHeight="15" markerWidth="15"><path style="fill:white;stroke:black" d="M 0 0 L 15 7.5 L 0 15 Z"></path></marker><marker id="aggregationMarker" orient="auto" refX="21" refY="7.5" markerHeight="15" markerWidth="20"><path style="fill:white;stroke:black" d="M 0 7.5 L 10 0 L 20 7.5 L 10 15 Z"></path></marker><marker id="compositionMarker" orient="auto" refX="21" refY="7.5" markerHeight="15" markerWidth="20"><path style="fill:black;stroke:black" d="M 0 7.5 L 10 0 L 20 7.5 L 10 15 Z"></path></marker></defs><g transform="translate(5,5)"><rect height="106" width="124" style="fill:white"></rect><rect height="21" width="124" style="fill:lightgrey"></rect><text x="33.5" y="16">user's</text><text><tspan x="2.5" y="37" style="text-decoration:underline">id</tspan><tspan x="2.5" y="53">name</tspan><tspan x="2.5" y="69">firstname</tspan><tspan x="2.5" y="85">email</tspan><tspan x="2.5" y="101">Phone number</tspan></text><g transform="translate(42,106)"><line x1="19" x2="19" y1="0" y2="5"></line><path d="M 39 24 a1,1 0 1,0 -39 0 l 39 0" style="fill:lightgrey"></path><text x="19.5" y="22"></text></g></g><g transform="translate(325,29)"><rect height="58" width="76" style="fill:white"></rect><rect height="21" width="76.5" style="fill:lightgrey"></rect><text x="19.25" y="16">Home</text><text><tspan x="2.5" y="37" style="text-decoration:underline">id</tspan><tspan x="2.5" y="53">adresse</tspan></text></g><g transform="translate(607,29)"><rect height="58" width="105" style="fill:white"></rect><rect height="21" width="105" style="fill:lightgrey"></rect><text x="5" y="16">Google API</text><text><tspan x="2.5" y="37" style="text-decoration:underline">id</tspan><tspan x="2.5" y="53">ip_adress</tspan></text></g><g transform="translate(33,169)"><rect height="42" width="67" style="fill:white"></rect><rect height="21" width="67" style="fill:lightgrey"></rect><text x="5" y="16">member</text><text><tspan x="2.5" y="37">id</tspan></text></g><g transform="translate(179,169)"><rect height="42" width="86" style="fill:white"></rect><rect height="21" width="86" style="fill:lightgrey"></rect><text x="5" y="16">Co owner</text><text><tspan x="2.5" y="37">id</tspan></text></g><g transform="translate(334,161)"><rect height="58" width="57" style="fill:white"></rect><rect height="21" width="57.5" style="fill:lightgrey"></rect><text x="5" y="16">Owner</text><text><tspan x="2.5" y="37">id</tspan><tspan x="2.5" y="53">Card</tspan></text></g><g transform="translate(43,269)"><rect height="42" width="48" style="fill:white"></rect><rect height="21" width="48" style="fill:lightgrey"></rect><text x="5" y="16">Room</text><text><tspan x="2.5" y="37" style="text-decoration:underline">n°</tspan></text></g><g transform="translate(29,361)"><rect height="42" width="76" style="fill:white"></rect><rect height="21" width="76.5" style="fill:lightgrey"></rect><text x="5" y="16">Objects</text><text><tspan x="2.5" y="37" style="text-decoration:underline">n°</tspan></text></g><g transform="translate(183,37)"><rect height="42" width="77" rx="20" ry="20" style="fill:lightgrey"></rect><line x1="0" x2="77" y1="21" y2="21"></line><text x="10" y="17">create</text><text><tspan x="10" y="37"></tspan></text></g><g transform="translate(470,37)"><rect height="42" width="77" rx="20" ry="20" style="fill:lightgrey"></rect><line x1="0" x2="77" y1="21" y2="21"></line><text x="10" y="17">search</text><text><tspan x="10" y="37"></tspan></text></g><g transform="translate(461,169)"><rect height="42" width="96" rx="20" ry="20" style="fill:lightgrey"></rect><line x1="0" x2="96" y1="21" y2="21"></line><text x="10" y="17">posseder</text><text><tspan x="10" y="37"></tspan></text></g><g transform="translate(315,269)"><rect height="42" width="96" rx="20" ry="20" style="fill:lightgrey"></rect><line x1="0" x2="96" y1="21" y2="21"></line><text x="10" y="17">contenir</text><text><tspan x="10" y="37"></tspan></text></g><g><line x1="183" x2="129" y1="58" y2="58"></line><text x="134" y="79">1,N</text></g><g><line x1="260" x2="325" y1="58" y2="58"></line><text x="289" y="79">1,N</text></g><g><line x1="470" x2="401" y1="58" y2="58"></line><text x="406" y="79">1,N</text></g><g><line x1="547" x2="607" y1="58" y2="58"></line><text x="571" y="79">1,N</text></g><g><line x1="461" x2="391" y1="190" y2="190"></line><text x="396" y="211">1,1</text></g><g><line x1="486" x2="395" y1="169" y2="87"></line><text x="400" y="108">1,N</text></g><g><line x1="363" x2="363" y1="269" y2="87"></line><text x="368" y="108">1,1</text></g><g><line x1="315" x2="91" y1="290" y2="290"></line><text x="96" y="311">1,N</text></g><g><line x1="315" x2="91" y1="290" y2="290"></line><text x="96" y="311">1,1</text></g><g><line x1="315" x2="105" y1="305" y2="370"></line><text x="110" y="363">1,N</text></g><g><line x1="67" x2="66" y1="135" y2="169"></line><text x="71" y="162"></text></g><g><line x1="67" x2="197" y1="135" y2="169"></line><text x="190" y="162"></text></g><g><line x1="67" x2="334" y1="135" y2="177"></line><text x="327" y="170"></text></g></svg>